<!-- TriVenta Tech Favicon - Hexagonal Version -->
<svg xmlns="http://www.w3.org/2000/svg" viewBox="0 0 32 32" width="32" height="32">
  <defs>
    <linearGradient id="faviconGold" x1="0%" y1="0%" x2="100%" y2="100%">
      <stop offset="0%" style="stop-color:#F4D03F;stop-opacity:1" />
      <stop offset="100%" style="stop-color:#D4AC0D;stop-opacity:1" />
    </linearGradient>
    
    <linearGradient id="faviconDark" x1="0%" y1="0%" x2="100%" y2="100%">
      <stop offset="0%" style="stop-color:#2C3E50;stop-opacity:1" />
      <stop offset="100%" style="stop-color:#34495E;stop-opacity:1" />
    </linearGradient>
  </defs>
  
  <!-- Background -->
  <rect width="32" height="32" rx="6" fill="url(#faviconDark)"/>
  
  <!-- Hexagonal Symbol -->
  <g transform="translate(16,16)">
    <!-- Container -->
    <rect x="-12" y="-12" width="24" height="24" rx="4" ry="4" 
          fill="none" stroke="url(#faviconGold)" stroke-width="1"/>
    
    <!-- Four Small Hexagons -->
    <g transform="translate(-5,-5)">
      <polygon points="0,-3 2,-1.5 2,1.5 0,3 -2,1.5 -2,-1.5" 
               fill="url(#faviconGold)"/>
    </g>
    <g transform="translate(5,-5)">
      <polygon points="0,-3 2,-1.5 2,1.5 0,3 -2,1.5 -2,-1.5" 
               fill="url(#faviconGold)"/>
    </g>
    <g transform="translate(-5,5)">
      <polygon points="0,-3 2,-1.5 2,1.5 0,3 -2,1.5 -2,-1.5" 
               fill="url(#faviconGold)"/>
    </g>
    <g transform="translate(5,5)">
      <polygon points="0,-3 2,-1.5 2,1.5 0,3 -2,1.5 -2,-1.5" 
               fill="url(#faviconGold)"/>
    </g>
    
    <!-- Connection lines -->
    <path d="M -3,-5 L 3,-5 M -5,-3 L -5,3 M 5,-3 L 5,3 M -3,5 L 3,5" 
          stroke="url(#faviconGold)" stroke-width="1" opacity="0.8"/>
  </g>
</svg>